<?xml version="1.0" encoding="utf-8"?>
<!-- Generator: Adobe Illustrator 27.5.0, SVG Export Plug-In . SVG Version: 6.00 Build 0)  -->
<svg version="1.1" id="Livello_1" xmlns="http://www.w3.org/2000/svg" xmlns:xlink="http://www.w3.org/1999/xlink" x="0px" y="0px"
	 viewBox="0 0 194 220.9" style="enable-background:new 0 0 194 220.9;" xml:space="preserve">
<style type="text/css">
	.st0{fill:#CC334A;}
	.st1{fill-rule:evenodd;clip-rule:evenodd;fill:#EAB93C;}
	.st2{fill-rule:evenodd;clip-rule:evenodd;fill:#F5CE3B;}
	.st3{fill-rule:evenodd;clip-rule:evenodd;fill:#CC334A;}
</style>
<g id="Livello_1_00000162352812242227956610000006209485397340751758_">
	<g>
		<g>
			<path class="st0" d="M20.7,90.9c9.7-0.2,18.6,2.2,26.6,7.7c4.9,3.4,9.2,7.3,12.2,12.5c1.9,3,3.5,6.3,5.1,9.4
				c3.5,7.1,7,14.3,10.5,21.4c2.3,4.8,4.8,9.4,8.7,13.2c5,4.7,10.8,7.6,17.7,8.9c5.1,0.9,9.9,0,14.9-0.8c4.1-0.7,8.2-1.4,12.1-2.1
				c4.7-0.9,9.2-2,13.7-2.9c4.7-0.9,9.2-1.6,13.9-2.4c2.9-0.6,5.8-1.2,8.7-1.7c4.2-0.8,8.4-1.6,12.6-2.4c2-0.3,4.4,1.3,5,3.4
				c0.7,2.6-0.6,5.2-3.1,6.1c-2.2,0.7-4.7,1.2-7,1.6c-9.7,1.9-19.3,3.7-29,5.5c-10,1.9-20,3.8-30.1,5.7c-8.3,1.6-16.1,0.2-23.6-3
				c-8.6-3.7-15.1-9.8-19.9-17.8c-2-3.4-3.6-7.1-5.4-10.6c-4-7.9-7.7-16.1-12.1-23.9c-5.7-9.9-14.2-16.1-25.9-17
				c-3.7-0.2-7.5,0-11.2,0.2c-3.6,0.2-5.4-0.7-6.3-4c-0.7-2.6,0.8-5.1,3.5-5.8c1.4-0.3,2.8-0.6,4.2-0.8C17.9,91,19.3,91,20.7,90.9z"
				/>
			<path class="st0" d="M111.1,202.9c-5.7,0.5-11.9-5.5-11.6-12c0.2-6.6,5.7-12.1,12.3-11.8c6.2,0.3,11.3,4.8,10.9,12.5
				C122.4,198.5,118.1,203,111.1,202.9z"/>
			<path class="st0" d="M148,181.2c-0.3-5.1,3.6-10.3,8.9-11.2c4.2-0.8,9.9,0.3,12.2,4.9c1.9,3.5,2.3,7.3,0.8,11.3
				c-1,2.6-2.4,4.5-4.9,5.8C158.2,195.9,147.3,191.6,148,181.2z"/>
		</g>
	</g>
	<g id="Livello_2_00000150067511771941086120000003740971236419207053_">
		<g>
			<g id="Group-20_00000050625839316306068280000000278558632480223404_" transform="translate(16.000000, 31.000000)">
				<path id="Fill-18_00000124159744968366231920000015915446615020398523_" class="st1" d="M93.1,97.1l-9.2-9.2L72.9,99
					c5.7,5.7,13.9,6.2,20,1.5C94,99.6,94,98.1,93.1,97.1 M132.7,109.8c1.2-5.2,2.5-10.4,3.7-15.6c0.4-1.8,1.3-3.2,2.6-4.5
					c6.8-6.7,13.5-13.5,20.2-20.4c6-6,9.4-13.2,10.1-21.7c0.5-7.2-0.2-14.1-3.4-20.7c-0.7-1.5-0.9-2.8,0.4-4.3
					c4.3-5.1,2.5-11.6-1.8-15.7L89.2,82.3l29.7,29.8c0.5,0.5,1.2,1.2,1.8,1.6C125.1,117.6,131.4,115.5,132.7,109.8"/>
			</g>
			<path id="Fill-21_00000077285275296687843360000000314352629760300164_" class="st2" d="M100.1,119.8l-11.4,10.7
				c-5.9-5.6-6.4-13.5-1.5-19.5c0.8-1,2.5-1.2,3.4-0.2L100.1,119.8z"/>
			<path id="Fill-23_00000124867262208026660100000013581221057480455870_" class="st2" d="M181.5,39.8L106,114.2L76.2,84.8
				c-0.5-0.5-1.2-1.2-1.6-1.8c-3.8-4.4-1.6-10.6,4.1-11.9c5.2-1.2,10.4-2.5,15.6-3.7c1.8-0.4,3.2-1.3,4.5-2.5
				c6.7-6.7,13.5-13.4,20.4-20c6-5.9,13.2-9.4,21.7-10c7.2-0.5,14.2,0.3,20.7,3.4c1.5,0.7,2.8,0.9,4.3-0.3
				C170.8,33.9,177.2,35.7,181.5,39.8L181.5,39.8z"/>
			<path id="Fill-25_00000013150528011694008980000014158219234149919417_" class="st3" d="M140.1,24.7L140.1,24.7
				c-2.2,0.2-4.3-1.5-4.5-3.5l-0.9-10.4c-0.2-2.2,1.5-4.1,3.7-4.3s4.3,1.5,4.5,3.5l1,10.3C144,22.6,142.3,24.6,140.1,24.7"/>
			<path id="Fill-27_00000132067285374850114530000003312887996681305770_" class="st3" d="M152.3,28.9L152.3,28.9
				c-1.5-1.3-1.8-3.8-0.4-5.4l5.1-6.6c1.2-1.6,3.5-1.8,5-0.5s1.8,3.8,0.4,5.4l-5.1,6.6C155.9,30,153.7,30.3,152.3,28.9"/>
			<path id="Fill-29_00000112614293504069459660000016290664166806324101_" class="st3" d="M116.2,22L116.2,22
				c1.2-1.6,3.5-1.8,5-0.5l4.1,3.7c1.5,1.3,1.8,3.8,0.4,5.3c-1.2,1.6-3.5,1.8-5,0.5l-4.1-3.7C115.1,26.1,114.9,23.6,116.2,22"/>
		</g>
	</g>
</g>
<g id="Livello_2_00000167371834307583370440000000467918143918231717_">
</g>
</svg>
