<?xml version="1.0" encoding="utf-8"?>
<!-- Generator: Adobe Illustrator 27.5.0, SVG Export Plug-In . SVG Version: 6.00 Build 0)  -->
<svg version="1.1" id="Livello_1" xmlns="http://www.w3.org/2000/svg" xmlns:xlink="http://www.w3.org/1999/xlink" x="0px" y="0px"
	 viewBox="0 0 190 176.3" style="enable-background:new 0 0 190 176.3;" xml:space="preserve">
<style type="text/css">
	.st0{fill-rule:evenodd;clip-rule:evenodd;fill:#EAB93C;}
	.st1{fill-rule:evenodd;clip-rule:evenodd;fill:#F5CE3B;}
	.st2{fill-rule:evenodd;clip-rule:evenodd;fill:#CC334A;}
</style>
<g id="Home">
	<g id="Scroll" transform="translate(-185.000000, -4263.000000)">
		<g id="Group-9" transform="translate(158.807229, 4022.000000)">
			<g id="pushloop" transform="translate(26.192771, 241.000000)">
				<g id="Group-20" transform="translate(16.000000, 31.000000)">
					<g id="Clip-19">
					</g>
					<path id="Fill-18" class="st0" d="M55.5,107.7l-8.9-8.1l-11.2,10.5c5.6,5.6,13.9,5.5,19.9,0.9
						C56.3,110.2,56.4,108.7,55.5,107.7 M94.4,120.3c1.2-5.1,2.5-10.2,3.6-15.3c0.4-1.8,1.3-3.2,2.6-4.4c6.7-6.6,13.3-13.3,19.9-20
						c5.9-5.9,9.3-13,9.9-21.4c0.5-7.1-0.2-13.9-3.3-20.4c-0.7-1.5-0.9-2.8,0.4-4.2c4.2-5,2.4-11.4-1.7-15.5l-74,73.4L81,122.6
						c0.5,0.5,1.1,1.1,1.7,1.6C87,127.9,93.1,125.9,94.4,120.3"/>
				</g>
				<path id="Fill-21" class="st1" d="M62.6,130.6l-11.2,10.5c-5.8-5.5-6.3-13.3-1.5-19.2c0.8-1,2.4-1.1,3.3-0.2L62.6,130.6z"/>
				<path id="Fill-23" class="st1" d="M142,50.3l-74.2,73.2L38.5,94.6c-0.5-0.5-1.1-1.1-1.6-1.7c-3.7-4.3-1.6-10.4,4-11.7
					c5.1-1.2,10.2-2.5,15.3-3.6c1.8-0.4,3.2-1.3,4.4-2.5c6.6-6.6,13.3-13.2,20-19.7c5.9-5.8,13-9.2,21.4-9.8
					c7.1-0.5,14,0.3,20.4,3.3c1.5,0.7,2.8,0.9,4.2-0.3C131.5,44.5,137.9,46.3,142,50.3L142,50.3z"/>
				<path id="Fill-25" class="st2" d="M101.9,37.1L101.9,37.1c-2.2,0.2-4.2-1.4-4.4-3.5l-0.9-10.2c-0.2-2.1,1.4-4,3.6-4.2
					s4.2,1.4,4.4,3.5l1,10.1C105.8,35,104.1,36.9,101.9,37.1"/>
				<path id="Fill-27" class="st2" d="M113.9,41.2L113.9,41.2c-1.5-1.3-1.7-3.7-0.4-5.3l5-6.5c1.2-1.6,3.5-1.8,4.9-0.5
					c1.5,1.3,1.7,3.7,0.4,5.3l-5,6.5C117.5,42.3,115.3,42.6,113.9,41.2"/>
				<path id="Fill-29" class="st2" d="M78.4,34.4L78.4,34.4c1.2-1.6,3.4-1.8,4.9-0.5l4,3.6c1.5,1.3,1.7,3.7,0.4,5.2
					c-1.2,1.6-3.4,1.8-4.9,0.5l-4-3.6C77.4,38.4,77.2,36,78.4,34.4"/>
			</g>
		</g>
	</g>
</g>
</svg>
